<svg xmlns="http://www.w3.org/2000/svg" width="94" height="76" version="1.2" viewBox="0 0 94 76"><title>default-svg</title><defs><linearGradient id="g1" x2="1" gradientTransform="matrix(23.59,0,0,23.589,32,33.531)" gradientUnits="userSpaceOnUse"><stop offset="0" stop-color="#08c7d6"/><stop offset="1" stop-color="#02023e"/></linearGradient><linearGradient id="g2" x2="1" gradientTransform="matrix(13.876,0,0,13.876,36.857,38.387)" gradientUnits="userSpaceOnUse"><stop offset="0" stop-color="#08c7d6"/><stop offset="1" stop-color="#02023e"/></linearGradient><linearGradient id="g3" x2="1" gradientTransform="matrix(5.55,0,0,5.55,41.02,42.55)" gradientUnits="userSpaceOnUse"><stop offset="0" stop-color="#08c7d6"/><stop offset="1" stop-color="#02023e"/></linearGradient><linearGradient id="g4" x2="1" gradientTransform="matrix(5.759,0,0,9.761,59.544,26.569)" gradientUnits="userSpaceOnUse"><stop offset="0" stop-color="#08c7d6"/><stop offset="1" stop-color="#02023e"/></linearGradient><linearGradient id="g5" x2="1" gradientTransform="matrix(1.388,0,0,1.388,56.977,30.755)" gradientUnits="userSpaceOnUse"><stop offset="0" stop-color="#08c7d6"/><stop offset="1" stop-color="#02023e"/></linearGradient><linearGradient id="g6" x2="1" gradientTransform="matrix(9.759,0,0,5.759,52.791,23.817)" gradientUnits="userSpaceOnUse"><stop offset="0" stop-color="#08c7d6"/><stop offset="1" stop-color="#02023e"/></linearGradient><linearGradient id="g7" x2="1" gradientTransform="matrix(40.241,0,0,40.24,32,16.88)" gradientUnits="userSpaceOnUse"><stop offset="0" stop-color="#08c7d6"/><stop offset="1" stop-color="#02023e"/></linearGradient></defs><style>.s0{display:none}.s0,.s1{fill:#000}.s2{fill:url(#g1)}.s3{fill:url(#g2)}.s4{fill:url(#g3)}.s5{fill:url(#g4)}.s6{fill:url(#g5)}.s7{fill:url(#g6)}.s8{fill:url(#g7)}</style><path id="Layer" d="m-8-113h300v300h-300z" class="s0"/><g id="973f7eec-04af-440d-92e0-7cfa88b52da3" style="display:none"><path id="Layer" fill-rule="evenodd" d="m100.6 26.4q0.7 0.4 1 1.1 0.3 0.6 0.3 1.4 0 0.7-0.3 1.4-0.2 0.7-0.7 1.1-4.4 0.1-7.3 0.3-0.6 2.1-1.1 4.7 3.4-0.3 5.8-0.8 0.6 0.4 1 1.1 0.4 0.6 0.4 1.4 0 0.7-0.3 1.4-0.3 0.6-0.8 1-0.7 0-1.3 0.1-0.6 0-1.2 0l-4.4 0.4-0.6 3-0.4 1.7q2.1-0.2 3.8-0.6 1.7-0.3 3.6-1 0.9 0.5 1.5 1.3 0.5 0.8 0.5 1.7 0 1.4-1.1 2.5-2.1 0.4-4.7 0.6-2.7 0.2-4.9 0.2-0.6 0-1.6-0.6-1-0.6-1.8-1.5-0.8-0.8-0.8-1.4 0-0.5 0.8-4 0.6-2.5 1.2-5.2 0.3-1.9 0.3-1.9 0.6-2.7 0.8-3.9l-1.5 0.1q-0.7-0.3-1-1-0.4-0.7-0.4-1.4 0-1.4 1-2.5 4.7 0 8.2-0.2 3.5-0.1 6-0.5zm6.8 24q-1 0-2.2-0.6-1.2-0.6-2.1-1.4-0.8-0.8-0.8-1.4 0-0.6 0.4-2.9 0.5-2.3 0.7-2.9 1-4.8 1.3-6.6l0.4-1.9q0.7-4 1.3-6.4 0.6-2.4 1.2-2.4 0.7 0 1.9 0.6 1.2 0.6 2.1 1.4 0.9 0.8 0.9 1.5 0 0.8-0.3 1.5-0.3 0.8-0.9 2.1-0.5 1-0.8 1.6-0.6 2-1.3 5.6-0.8 3.6-1.2 7 1.1-0.6 1.7-1 0.6-0.3 1.4-1 1.5 0.5 2.2 1.4 0.8 0.9 0.8 2 0 0.9-1.2 1.8-1.2 0.8-2.8 1.4-1.6 0.6-2.7 0.6zm15.4-20.3q-0.7 0-1.6-0.6-0.9-0.5-1.6-1.2-0.6-0.8-0.6-1.4 0-0.9 0.5-1.8 0.4-0.9 1.2-1.3 0.3-0.2 1.1-0.2 1.2 0 2.5 0.5 1.2 0.6 1.5 1.4 0 0.2 0 0.5 0 0.8-0.4 1.8-0.5 0.9-1.2 1.6-0.8 0.7-1.4 0.7zm-2.4 20.3q-0.9 0-2-0.6-1.1-0.6-1.9-1.4-0.8-0.8-0.8-1.4 0-0.6 0.4-1.8 0.5-1.2 1.4-3.3 0.7-1.6 1-2.5 0.3-0.9 0.3-1.3 0-0.2-0.3-0.6-0.3-0.3-0.9-0.8-0.8-0.6-1.2-0.9-0.3-0.3-0.3-0.7 0-0.7 0.6-1.7 0.7-1 1.6-1.7 0.9-0.6 1.6-0.6 0.8 0 1.7 0.6 0.9 0.7 1.6 1.7 0.7 0.9 0.7 1.5 0 1.5-0.8 4.3-0.8 2.8-2 6 0.9-0.4 1.5-0.8 0.6-0.4 1.7-1.2 1.5 0.5 2.3 1.4 0.7 1 0.7 2 0 0.9-1.2 1.8-1.1 0.9-2.8 1.4-1.6 0.6-2.9 0.6zm21.1-13.7l-5.1 0.2q-1.1 5.2-1.4 8.4 2.2-1 3.5-2.1 1.5 0.5 2.2 1.4 0.8 0.9 0.8 2 0 0.9-1.2 1.8-1.2 0.8-2.8 1.4-1.6 0.6-2.7 0.6-1 0-2.2-0.6-1.2-0.6-2.1-1.4-0.9-0.8-0.9-1.4 0-0.5 0.4-2.1 0.4-1.6 0.6-2.7 0.3-1.2 0.5-1.7l0.8-3.3-2.1 0.1q-0.6-0.3-0.9-0.8-0.3-0.6-0.3-1.4 0-1.3 1-2.3 1.2 0.1 3 0.1 0-2.1 0.5-4.8 0.5-2.7 1.1-2.7 0.7 0 1.8 0.7 1.1 0.6 1.9 1.4 0.8 0.8 0.8 1.4 0 0.8-0.3 1.6-0.3 0.8-0.9 2.2 0.6 0 2.9-0.4l0.8-0.2q0.6 0.4 1 1 0.3 0.7 0.3 1.4 0 0.6-0.3 1.2-0.2 0.6-0.7 1zm9.7 13.7q-1.6 0-3.4-1.1-1.8-1.1-2.9-2.7-1.2-1.5-1.2-2.9 0-2.5 1.2-5.5 1.2-3 3.2-5.1 2.1-2 4.8-2 1.9 0 3.4 0.8 1.5 0.8 2.4 2 0.8 1.3 0.8 2.4 0 1.5-1.3 2.9-1.3 1.3-3.6 2.4-2.3 1.1-5.3 1.5-0.1 0.4-0.1 1.2 0 1 0.1 1.6 1.7-0.2 3.4-1 1.7-0.7 3.7-2.1 1.3 0.4 2 1.3 0.7 0.9 0.7 2.2 0 1-1.3 2-1.2 0.9-3.1 1.5-1.8 0.6-3.5 0.6zm-1.4-9.9q2.1-0.7 3.5-1.9 1.4-1.2 1.4-2 0-0.9-1.3-1.3-1.3 1-2.3 2.3-0.9 1.3-1.3 2.9zm27.7-1.3l0.3 2.6q0.1 0.6 0.3 2.8 0.2 2.2 0.2 3.7 0 1.9-0.4 2.1-0.2 0-0.5 0-0.7 0-1.9-0.4-1.1-0.3-1.9-0.9-0.9-0.5-1.1-1-0.1-0.6-0.1-4.4-3.7 0.5-4.9 0.6-0.9 2.7-2.1 5.9-0.9 0.2-1.7 0.2-1.4 0-2.3-0.6-0.9-0.7-1.3-2.1l0.7-1.5q3.8-8.4 6.6-14.1 2.7-5.7 3.5-5.7 0.7 0 1.9 0.5 1.3 0.5 2.3 1.1 1 0.7 1.1 1.3 0.3 0.9 0.7 4 0.4 3 0.6 5.9zm-5.2-7.5q-1.5 3.6-3 7.7 1.6-0.1 3.2-0.3 0-4.7-0.2-7.4zm13.3 18.7q-0.9 0-2-0.7-1-0.7-1.7-1.5-0.8-0.9-0.8-1.4 0-0.6 0.4-1.6 0.3-1.1 0.6-2.1 0.4-1 0.5-1.3 0.5-1.2 0.8-2.2 0.4-1.1 0.4-1.5 0-0.2-0.3-0.6-0.4-0.3-1-0.8-0.8-0.6-1.1-0.9-0.4-0.3-0.4-0.7 0-0.7 0.7-1.7 0.6-1 1.5-1.7 1-0.6 1.6-0.6 0.7 0 1.7 0.6 0.9 0.7 1.6 1.5 0.7 0.8 0.7 1.3 0 2.1-0.7 5.1-0.7 3-1.8 5.9 2.2-1.9 4-4.2 1.8-2.2 2.5-4.1 0.1-2.2 0.5-3.7 0.5-1.5 1.1-1.5 0.9 0 2 0.6 1.1 0.7 1.8 1.5 0.8 0.8 0.8 1.3-0.1 0.7-0.7 2.7-0.6 2-1.7 5.1-0.7 1.9-0.7 2.1 0.9-0.4 1.7-0.9 0.8-0.5 1.8-1.2 1.4 0.5 2.2 1.4 0.7 0.9 0.7 2 0 0.9-1.1 1.8-1.2 0.8-2.8 1.4-1.6 0.6-2.8 0.6-0.7 0-1.7-0.6-1-0.6-1.7-1.4-0.8-0.8-0.8-1.1 0-0.4 0.2-0.9 0.3-0.6 0.6-1.2 0.3-0.7 0.5-1l-0.8-0.4q-1.9 3.4-3.3 5-1.3 1.6-3 1.6zm31-13.7l-5.1 0.2q-1.2 5.2-1.5 8.4 2.2-1 3.5-2.1 1.5 0.5 2.3 1.4 0.7 0.9 0.7 2 0 0.9-1.2 1.8-1.1 0.8-2.7 1.4-1.6 0.6-2.8 0.6-1 0-2.2-0.6-1.2-0.6-2.1-1.4-0.8-0.8-0.8-1.4 0-0.5 0.4-2.1 0.3-1.6 0.6-2.7 0.3-1.2 0.4-1.7l0.8-3.3-2 0.1q-0.6-0.3-0.9-0.8-0.3-0.6-0.3-1.4 0-1.3 1-2.3 1.2 0.1 3 0.1 0-2.1 0.4-4.8 0.5-2.7 1.1-2.7 0.7 0 1.8 0.7 1.1 0.6 1.9 1.4 0.9 0.8 0.9 1.4 0 0.8-0.3 1.6-0.3 0.8-1 2.2 0.6 0 3-0.4l0.8-0.2q0.6 0.4 0.9 1 0.3 0.7 0.3 1.4 0 0.6-0.2 1.2-0.3 0.6-0.7 1zm9.8-5.7q2.4 0.3 4.4 1.5 2 1.2 3.2 2.8 1.1 1.7 1.1 3.3 0 2.5-1.3 5.3-1.3 2.7-3.5 4.6-2.3 1.9-5.1 1.9-1.3 0-2.9-1-1.5-1-2.6-2.5-1-1.5-1-2.6 0-2.1 0.5-4.3 0.5-2.2 1.6-4.3 1-0.5 2-0.5 0.4 0 0.8 0.1-0.1-0.4-0.1-1 0-1.1 0.7-2 0.8-0.9 2.2-1.3zm-2.4 15.5q2.9-1 4.4-3.3 1.6-2.3 2.1-5.6-1.5-1.1-4.2-1.1-0.6 0-1 0.1 0.4 0.7 0.4 1.5-0.9 1.4-1.3 3.1-0.5 1.7-0.5 3.4 0 1.1 0.1 1.9zm22.6-11.4q-1.6 1.2-2.5 2.3-1 1.2-1 1.9 0 0.4 0.7 0.8 0.6 0.4 2.2 1.1 2.4 1.1 3.7 2 1.4 1 1.4 2.2 0 1.2-1.4 2.4-1.4 1.1-3.5 1.9-2 0.7-3.8 0.7-1.3 0-2.8-0.6-1.5-0.5-2.5-1.4-1-0.9-1-1.7 0-1.4 0.9-2.2 1-0.9 2.4-0.9 0.7 0 1.4 0.3 0.6 1.8 1 2.6 2.1-0.6 3.8-1.9-2.9-1.2-5.3-2.8-2.4-1.5-2.4-2.8 0-1.4 1.3-3.3 1.3-1.9 3.2-3.3 2-1.4 4.1-1.4 1.4 0 2.7 0.9 1.2 0.8 2 2 0.8 1.2 0.8 2.4 0 1.1-0.9 1.9-0.8 0.6-2.2 0.6-0.8 0-1.7-0.3-0.1-1.4-0.6-3.4z" class="s1"/></g><g id="eab9e6c0-5a8f-40ac-a4b4-affe2ce566e4"><path id="Layer" fill-rule="evenodd" d="m53 48.5q-0.1 0.2-0.2 0.5-0.2 0.3-0.3 0.6-0.1 0.3-0.3 0.6l-0.2 0.3 1.2 2.1-2.2 2.2-2-1.3-0.4 0.2q-0.2 0.2-0.5 0.3-0.3 0.2-0.6 0.3-0.3 0.1-0.6 0.2-0.3 0.1-0.6 0.2l-0.4 0.1-0.6 2.3h-3l-0.6-2.3-0.4-0.1q-0.3-0.1-0.6-0.2-0.3-0.1-0.6-0.2-0.3-0.1-0.6-0.3-0.3-0.1-0.5-0.3l-0.4-0.2-2.1 1.3-2.1-2.2 1.2-2.1-0.2-0.3q-0.2-0.3-0.3-0.6-0.2-0.3-0.3-0.6-0.1-0.3-0.2-0.5-0.1-0.3-0.2-0.6l-0.1-0.4-2.3-0.6v-3.1l2.3-0.6 0.1-0.4q0.1-0.3 0.2-0.6 0.1-0.3 0.2-0.6 0.1-0.3 0.3-0.6 0.1-0.2 0.3-0.5l0.2-0.4-1.2-2 2.1-2.2 2.1 1.2 0.4-0.2q0.2-0.1 0.5-0.3 0.3-0.1 0.6-0.2 0.3-0.2 0.6-0.3 0.3-0.1 0.6-0.1l0.4-0.1 0.6-2.4h3l0.6 2.4 0.4 0.1q0.3 0 0.6 0.1 0.3 0.1 0.6 0.3 0.3 0.1 0.6 0.2 0.3 0.2 0.5 0.3l0.4 0.2 2-1.2 2.2 2.2-1.2 2 0.2 0.4q0.2 0.3 0.3 0.5 0.1 0.3 0.3 0.6 0.1 0.3 0.2 0.6 0.1 0.3 0.2 0.6l0.1 0.4 2.3 0.6v3.1l-2.3 0.6-0.1 0.4q-0.1 0.3-0.2 0.6zm-0.9-3.2c0-4.6-3.7-8.3-8.3-8.3-4.6 0-8.3 3.7-8.3 8.3 0 4.6 3.7 8.4 8.3 8.4 4.6 0 8.3-3.8 8.3-8.4z" class="s2"/><path id="Layer" fill-rule="evenodd" d="m50.7 45.3c0 3.9-3.1 7-6.9 7-3.8 0-6.9-3.1-6.9-7 0-3.8 3.1-6.9 6.9-6.9 3.8 0 6.9 3.1 6.9 6.9zm-2.7 0c0-2.3-1.9-4.1-4.2-4.1-2.3 0-4.2 1.8-4.2 4.1 0 2.3 1.9 4.2 4.2 4.2 2.3 0 4.2-1.9 4.2-4.2z" class="s3"/><path id="Layer" d="m43.8 48.1c-1.5 0-2.8-1.2-2.8-2.8 0-1.5 1.3-2.8 2.8-2.8 1.5 0 2.8 1.3 2.8 2.8 0 1.6-1.3 2.8-2.8 2.8z" class="s4"/><path id="Layer" d="m63.5 36.3c1.1-1.3 1.8-3 1.8-4.9 0-1.8-0.7-3.5-1.8-4.8l-4 4q0.2 0.4 0.3 0.8-0.1 0.5-0.3 0.9z" class="s5"/><path id="Layer" d="m57.7 32.1c-0.4 0-0.7-0.3-0.7-0.7 0-0.3 0.3-0.6 0.7-0.6 0.4 0 0.7 0.3 0.7 0.6 0 0.4-0.3 0.7-0.7 0.7z" class="s6"/><path id="Layer" d="m52.8 25.6l4 4q0.4-0.2 0.9-0.2 0.5 0 0.9 0.2l3.9-4c-1.3-1.1-3-1.8-4.8-1.8-1.9 0-3.6 0.7-4.9 1.8z" class="s7"/><path id="Layer" fill-rule="evenodd" d="m72.2 29.9v3.1l-1.5 0.5-0.1 0.4q-0.1 0.7-0.3 1.3-0.2 0.7-0.5 1.3-0.2 0.6-0.5 1.2-0.3 0.6-0.7 1.1l-0.2 0.4 0.7 1.4-2.2 2.3-1.5-0.8-0.3 0.3q-0.6 0.3-1.2 0.7-0.6 0.3-1.2 0.5-0.6 0.3-1.2 0.5-0.7 0.2-1.3 0.3l-0.4 0.1-0.5 1.5h-2.3v-3.3l-2.6-0.7q-0.3-0.9-0.8-1.8l1.4-2.3-1.4-1.4 3.2-3.2q0.4 0.2 0.9 0.2 0.5 0 0.9-0.2l4 4c-1.4 1.1-3.1 1.8-4.9 1.8q-1 0-1.9-0.2l-0.3 1.3q1.1 0.3 2.2 0.3c4.9 0 9-4.1 9-9.1 0-4.9-4.1-9-9-9-5 0-9 4.1-9 9q0 0.3 0 0.6 0 0.3 0 0.6 0.1 0.3 0.1 0.6 0.1 0.3 0.1 0.5l1.4-0.3q-0.3-1-0.3-2 0-0.6 0.2-1.3 0.1-0.6 0.3-1.2 0.2-0.7 0.6-1.2 0.3-0.6 0.7-1.1l4 4q-0.2 0.4-0.2 0.8 0 0.5 0.2 0.9l-3.2 3.2-1.3-1.3-2.3 1.3q-0.9-0.5-1.9-0.8l-0.7-2.6h-3.3v-2.2l1.6-0.6v-0.3q0.2-0.7 0.3-1.3 0.2-0.7 0.5-1.3 0.2-0.6 0.6-1.2 0.3-0.6 0.7-1.1l0.2-0.4-0.7-1.4 2.2-2.3 1.4 0.8 0.4-0.3q0.5-0.3 1.1-0.7 0.6-0.3 1.2-0.5 0.6-0.3 1.3-0.5 0.6-0.2 1.3-0.3l0.4-0.1 0.5-1.5h3.2l0.5 1.5 0.4 0.1q0.6 0.1 1.3 0.3 0.6 0.2 1.2 0.5 0.6 0.2 1.2 0.5 0.6 0.4 1.2 0.7l0.3 0.3 1.5-0.8 2.2 2.3-0.7 1.4 0.2 0.4q0.4 0.5 0.7 1.1 0.3 0.6 0.6 1.2 0.2 0.6 0.4 1.3 0.2 0.6 0.3 1.3l0.1 0.3zm-2.8 1.6c0-6.5-5.3-11.8-11.8-11.8-6.2 0-11.4 4.9-11.8 11.1l1.4 0.1c0.4-5.5 4.9-9.8 10.4-9.8 5.8 0 10.4 4.7 10.4 10.4 0 5.5-4.3 10.1-9.7 10.4v1.4c6.3-0.4 11.1-5.5 11.1-11.8zm1.4 24.3h1.4v1.4h-1.4zm-8.7 0h7.3v1.4h-7.9l-1.4-1.4h-6v-1.4h6.6zm5.9-4.1h1.4v1.3h-1.4zm-13.8-1.3h6.5l1.4 1.3h4.5v1.4h-5.1l-1.4-1.4h-5.9zm-22.2-32.6h1.3v1.4h-1.3zm7.3 1.4h-4.6v-1.4h5.2l1.4 1.4h4.5v1.4h-5.1zm-4.6 2.8h1.4v1.4h-1.4zm5.9 0l1.3 1.3h2.5v1.4h-3l-1.4-1.4h-2.5v-1.3z" class="s8"/></g></svg>